/* XPM */
static char *result[] = {
/* columns rows colors chars-per-pixel */
"30 30 7 1 ",
"  c red",
". c #FF0101",
"X c #DE9751",
"o c #DF9751",
"O c #DF9851",
"+ c #E0DDFF",
"@ c None",
/* pixels */
"@@@@@@@@@@@@@@@@@@@@@@@@@@@@@@",
"@@@@@@@@@@@@@@@@@@@@@@@@@@@@@@",
"@@@@@@@@@@@@@@@@@@@@@@@@@@@@@@",
"@@@@@@@@@@@@@@@@@@@@@@@XXOO@@@",
"@@@@@@@@@@@@@@@@@@@@@@@XXOO@@@",
"@@@@@@@@@@@@@@@@@@@XXOOXXXX@@@",
"@@@@@@@@@@@@@@@@@@@XXOOXXXX@@@",
"@@@@@@@@@@@@@@@XXXX@@XX@@@@@@@",
"@@@@@@@@@@@@@@@XXXX@@XX@@@@@@@",
"@@@@@@@@@@@@@XX@@@@@@XX@@@@@@@",
"@@@@@@@@@@@@@XX@@@@@@XX@@@@@@@",
"@@@@@      oo@@@@@@XX@@@@@@@@@",
"@@@@@      oo@@@@@@XX@@@@@@@@@",
"@@@      oo    @@XX@@@@@@@@@@@",
"@@@      oo    @@XX@@@@@@@@@@@",
"@@@          @@  oo    @@@@@@@",
"@@@          @@  oo    @@@@@@@",
"@@@  ++..  @@    oo      @@@@@",
"@@@  ++..  @@    oo      @@@@@",
"@@@    ++  @@            @@@@@",
"@@@    ++  @@            @@@@@",
"@@@@@      @@  ++..      @@@@@",
"@@@@@      @@  ++..      @@@@@",
"@@@@@@@@@@@@@    ++      @@@@@",
"@@@@@@@@@@@@@    ++      @@@@@",
"@@@@@@@@@@@@@@@        @@@@@@@",
"@@@@@@@@@@@@@@@        @@@@@@@",
"@@@@@@@@@@@@@@@@@@@@@@@@@@@@@@",
"@@@@@@@@@@@@@@@@@@@@@@@@@@@@@@",
"@@@@@@@@@@@@@@@@@@@@@@@@@@@@@@"
};
