/* XPM */
static char *result[] = {
/* columns rows colors chars-per-pixel */
"30 48 178 2 ",
"   c #372317",
".  c #362418",
"X  c #242D2F",
"o  c #312C25",
"O  c #313129",
"+  c #3B3129",
"@  c #491F06",
"#  c #571F00",
"$  c #5B1F00",
"%  c #4C250A",
"&  c #52240B",
"*  c #572509",
"=  c #632707",
"-  c #6C2A05",
";  c #742F09",
":  c #793109",
">  c #7E350E",
",  c #6E3011",
"<  c #743210",
"1  c #7D3610",
"2  c #793A19",
"3  c #65422D",
"4  c #71452C",
"5  c #7A563F",
"6  c #374545",
"7  c #394747",
"8  c #354A4B",
"9  c #3A4A4A",
"0  c #2F5E5C",
"q  c #325353",
"w  c #325B5A",
"e  c #2E605F",
"r  c #355F60",
"t  c #1F6262",
"y  c #216464",
"u  c #2E6160",
"i  c #2A6868",
"p  c #346463",
"a  c #3E6466",
"s  c #3C7779",
"d  c #444E4D",
"f  c #534E45",
"g  c #575046",
"h  c #425957",
"j  c #735545",
"k  c #725F56",
"l  c #445C61",
"z  c #466B6E",
"x  c #497777",
"c  c #577F7F",
"v  c #716E6A",
"b  c #6F7677",
"n  c #83360C",
"m  c #873A0F",
"M  c #803710",
"N  c #843B14",
"B  c #8B3E15",
"V  c #8B3F18",
"C  c #903F12",
"Z  c #8C411A",
"A  c #934114",
"S  c #93441B",
"D  c #9A4619",
"F  c #9D491D",
"G  c #A44C1E",
"H  c #884828",
"J  c #934722",
"K  c #954822",
"L  c #9C4C23",
"P  c #944C28",
"I  c #9C4E28",
"U  c #9D512D",
"Y  c #A54F21",
"T  c #A55023",
"R  c #AA5122",
"E  c #A3522C",
"W  c #AB562B",
"Q  c #B25626",
"!  c #B45B2F",
"~  c #B95B29",
"^  c #A55734",
"/  c #A65A36",
"(  c #AC5B35",
")  c #B55E35",
"_  c #BA5E36",
"`  c #B1623F",
"'  c #BA643E",
"]  c #C86532",
"[  c #CE6936",
"{  c #C4673A",
"}  c #C66A39",
"|  c #CD6C3A",
" . c #D26B36",
".. c #D5703F",
"X. c #DC733E",
"o. c #E0743F",
"O. c #91644D",
"+. c #A76747",
"@. c #B56544",
"#. c #B76847",
"$. c #BB6946",
"%. c #BC6B48",
"&. c #BC704F",
"*. c #BC7352",
"=. c #B77659",
"-. c #B6795D",
";. c #BC7A5D",
":. c #BB7D61",
">. c #C36C46",
",. c #CA6E46",
"<. c #C16D49",
"1. c #D06F46",
"2. c #CC7144",
"3. c #CC7148",
"4. c #D37345",
"5. c #DA7546",
"6. c #E17745",
"7. c #5A7D82",
"8. c #3D8686",
"9. c #3C8B8C",
"0. c #379697",
"q. c #438E8E",
"w. c #5C868D",
"e. c #5C8F96",
"r. c #469697",
"t. c #698B88",
"y. c #6A8B8C",
"u. c #728585",
"i. c #738E8F",
"p. c #62978E",
"a. c #658D95",
"s. c #6C8C92",
"d. c #619696",
"f. c #6D949C",
"g. c #799293",
"h. c #6B9BA3",
"j. c #44A6A8",
"k. c #5FA5AC",
"l. c #5EADB2",
"z. c #43B8BA",
"x. c #5EB4B9",
"c. c #5DBABE",
"v. c #61A7AD",
"b. c #69A3AA",
"n. c #63A9AF",
"m. c #66ACB3",
"M. c #68ABB2",
"N. c #63B3BA",
"B. c #63B4BA",
"V. c #5CBDC1",
"C. c #61BDC2",
"Z. c #48CDCE",
"A. c #5BC1C5",
"S. c #5CC6CA",
"D. c #5BC9CD",
"F. c #57CDD0",
"G. c #5ACED2",
"H. c #55D2D4",
"J. c #5AD1D4",
"K. c #53D6D9",
"L. c #53DBDE",
"P. c #889595",
"I. c #9E9F9F",
"U. c #9FA1A1",
"Y. c #A6B2B2",
"T. c #AEB1B1",
"R. c #B4B3B3",
"E. c #BCB5B1",
"W. c #BCBCBD",
"Q. c #C2B7B1",
"!. c #CCBAB0",
"~. c #D1BCB0",
"^. c #C4C3C3",
"/. c #C9CCCC",
"(. c #CECFD0",
"). c #E2E2E2",
"_. c #F5F5F5",
"`. c None",
/* pixels */
"`.`.`.`.`.`.`.`.`.`.W.U.x t t t t x U.W.`.`.`.`.`.`.`.`.`.`.",
"`.`.`.`.`.`.`._./.t.9.0.Z.S.c.c.S.Z.0.q.u.(._.`.`.`.`.`.`.`.",
"`.`.`.`.`.`.^.g.8.V.l.M.B.S.f.h.S.B.M.l.z.9.g.^.`.`.`.`.`.`.",
"`.`.`.`.`.Y.9.j.V.D.n.a.w.p 6 6 u w.a.v.G.V.j.9.Y.`.`.`.`.`.",
"`.`.`.`.Y.r.K.N.f.e.8.O   # $ $ $   o 9.e.f.m.K.r.Y.`.`.`.`.",
"`.`.`.Y.r.v.h.c.a + @ - : R P I K ; - @ + z V.b.k.r.Y.`.`.`.",
"`.`.^.9.V.h.a.h % - B ( G 4.%.%.@.F } C - & q s.f.V.9.W.`.`.",
"`._.i.j.D.k.d * G ) #.>.Y ..$.$.( T 5.,.W D * d k.S.j.i._.`.",
"`./.8.x.h.z & >  .3.>.>.Y ..$.%.) Y 4.,.1._ n * a h.x.8./.`.",
"_.u.j.b.w.+ < K  .1.>.>.Y ..>.>.@.Y 4.>.1.) Q N + w.b.z.u._.",
"R.q.A.D.z @ E I [ ,.,.>.L ..,.,.` Y 4.$.1.) ~ ! @ z D.V.q.R.",
"U.0.M.d.o 1 @.I [ >.,.>.L ..,.,.` Y 4.#.>.( ~ >.1 o a.m.0.I.",
"P.0.b.7.. J %.I [ >.>.#.L ..,.,.` G 4.#.,.) ~ 3.P   7.b.0.P.",
"i K.S.r = ) $.I [ $.>.#.L X.,.>.@.Y 4.#.,._ ~ 3.^ = w S.H.i ",
"y H.B.q 1 5.%.I [ <.$.%.L o.,.>.' T 4.%.>._ ~ 3.#., 8 B.F.y ",
"y B.f.f > W U Z R E I I B Q E E I A W U E J G E I , f f.V.y ",
"y F.y./ [ ] { ] ] } } } ] ] ] } ] ] ] ] } ] ] ] } ] / t.D.t ",
"y L.d.~ 3.&.:.<.>.<.:.<.>.>.&.:.>.%.>.*.;.>.$.*.;.>.U p.L.t ",
"y V.s.5 B N N V N B N N N N N B Z N N Z N V V N Z N 5 y.A.y ",
"y V.f.9 - D Z n C S Z Z > D Z Z Z n S Z Z N m S Z = 7 f.V.t ",
"y L.G.0 1 4.%.P  .4.%.#.L X.>.$.' Y 4.#.$./ ~ 1.>., 0 G.L.y ",
"y S.b.8 n 4.+.P [ ,.>.#.L X.,.>.{ Y 4.$.%./ ~ 5.,.< 8 b.A.y ",
"y c.f.7 1 +.v 4 [ >.>.@.L ..,.,.' Y 4.$.>./ ~ 5.{ < 7 f.c.y ",
"y H.B.w n +.v 4 [ >.,.>.L ..>.1.' Y 4.>.<./ ~ 5.>.< q B.H.y ",
"y K.A.w > 2.j P [ $.>.,.L ..$.1.' Y 1.$.>./ ~ 5.,.< q V.J.y ",
"y B.f.7 > ..j P  .$.$.>.F ..$.1.' R 1.<.>./ ~ 5.>., 6 f.V.y ",
"y S.b.8 1 2.j P [ $.$.,.Y ..$.1.' Y 4.<.>./ ~ 4.>., 6 b.S.t ",
"y L.J.e 1 $.k H [ >.#.>.Y 1.>.,.' Y 4.,.1.( ~ 3.| < w G.L.y ",
"y A.h.7 1 +.b 3 [ >.#.>.Y ..%.,.' Y 4.,.1.( ~ 4.,., 6 h.V.y ",
"y c.f.7 1 >.O.H [ $.$.$.Y ..$.$.` Y 5.,.,.( ~ 3.$., 6 f.V.y ",
"y K.D.0 1 4.+.U } >.#.>.Y 1.$.$.` Y 5.>.,.( ~ 3.@., 0 D.K.y ",
"y D.n.q 1 4.$.I [ >.#.>.Y X.%.%.` G 6.>.>._ ~ ,.#., 8 m.D.t ",
"y c.f.g > R I Z G T I T Z R I I K A Q E I F D T I > g f.c.t ",
"y D.t.(  .| 2.| [ [ 2.| [ [ [ 2.[  .[ | 2.[ [ | | | ^ t.H.t ",
"y L.p.! ,.%.-.%.$.%.-.%.$.$.&.-.$.$.$.*.=.$.$.&.-.$.U p.L.e ",
"y V.p.5 M M 1 M 1 M M M M M M 1 M M M M 1 M M M 1 < 5 y.V.y ",
"y A.h.9 - Y F M D K S S m F S L Z N G K K B A F S = 7 f.A.y ",
"y L.J.u > 5.,.E [ %.3.$.F 4.,.3.' Y 4.>.,./ ~ 3.#., e G.L.y ",
"y A.b.8 > 4.,.E [ >.>.#.L ..,.>.@.Y 4.>.,./ ~ 3.#., 8 b.A.y ",
"y C.f.7 1 5.>.T [ 3.>.$.L X.3.<.{ R 4.%.<./ ~ 3.#., 7 f.V.t ",
"c s l X & W U 2 L W U U 2 W E U I 2 W U U H Z ^ I & X l s c ",
").T.T.R.E.~.~.Q.!.~.~.~.E.!.~.~.!.E.~.~.~.!.Q.~.!.E.T.T.T.).",
"`.`.`.`.`.`.`.`.`.`.`.`.`.`.`.`.`.`.`.`.`.`.`.`.`.`.`.`.`.`.",
"`.`.`.`.`.`.`.`.`.`.`.`.`.`.`.`.`.`.`.`.`.`.`.`.`.`.`.`.`.`.",
"`.`.`.`.`.`.`.`.`.`.`.`.`.`.`.`.`.`.`.`.`.`.`.`.`.`.`.`.`.`.",
"`.`.`.`.`.`.`.`.`.`.`.`.`.`.`.`.`.`.`.`.`.`.`.`.`.`.`.`.`.`.",
"`.`.`.`.`.`.`.`.`.`.`.`.`.`.`.`.`.`.`.`.`.`.`.`.`.`.`.`.`.`.",
"`.`.`.`.`.`.`.`.`.`.`.`.`.`.`.`.`.`.`.`.`.`.`.`.`.`.`.`.`.`."
};
