/* XPM */
static char *result[] = {
/* columns rows colors chars-per-pixel */
"48 48 3 1 ",
"  c red",
". c #E0DDFF",
"X c black",
/* pixels */
"XXXXXXXXXXXXXXXXXXXXXXXXXXXXXXXXXXXXXXXXXXXXXXXX",
"XXXXXXXXXXXXXXXXXXXXXXXXXXXXXXXXXXXXXXXXXXXXXXXX",
"XXXXXXXXXXXXXXXXXXXXXXXXXXXXXXXXXXXXXXXXXXXXXXXX",
"XXXXXXXXXXXXXXXXXXXXXXXXXXXXXXXXXXXXXXXXXXXXXXXX",
"XXXXXXXXXXXXXXXXXXXXXXXXXXXXXXXXXXXXXXXXXXXXXXXX",
"XXXXXXXXXXXXXXXXXXXXXXXXXXXXXXXXXXXXXXXXXXXXXXXX",
"XXXXXXXXXXXXXXXXXXXXXXXXXXXXXXXXXXXXXXXXXXXXXXXX",
"XXXXXXXXXXXXXXXXXXXXXXXXXXXXXXXXXXXXXXXXXXXXXXXX",
"XXXXXXXXXXXXXXXXXXXXXXXXXXXXXXXXXXXXXXXXXXXXXXXX",
"XXXXXXXXXXXXXXXXXXXXXXXXXXXXXXXXXXXXXXXXXXXXXXXX",
"XXXXXXXXXXXXXXXXXXXX........XXXXXXXXXXXXXXXXXXXX",
"XXXXXXXXXXXXXXXXXXXX........XXXXXXXXXXXXXXXXXXXX",
"XXXXXXXXXXXXXXXX................XXXXXXXXXXXXXXXX",
"XXXXXXXXXXXXXXXX................XXXXXXXXXXXXXXXX",
"XXXXXXXXXXXXXX....................XXXXXXXXXXXXXX",
"XXXXXXXXXXXXXX....................XXXXXXXXXXXXXX",
"XXXXXXXXXXXX........................XXXXXXXXXXXX",
"XXXXXXXXXXXX........................XXXXXXXXXXXX",
"XXXXXXXXXXXX......    ....    ......XXXXXXXXXXXX",
"XXXXXXXXXXXX......    ....    ......XXXXXXXXXXXX",
"XXXXXXXXXXXX......    ....    ......XXXXXXXXXXXX",
"XXXXXXXXXXXX......    ....    ......XXXXXXXXXXXX",
"XXXXXXXXXX............................XXXXXXXXXX",
"XXXXXXXXXX............................XXXXXXXXXX",
"XXXXXXXXXX............................XXXXXXXXXX",
"XXXXXXXXXX............................XXXXXXXXXX",
"XXXXXXXXXX....    ....    ....    ....XXXXXXXXXX",
"XXXXXXXXXX....    ....    ....    ....XXXXXXXXXX",
"XXXXXXXXXX..  ....    ....    ....  ..XXXXXXXXXX",
"XXXXXXXXXX..  ....    ....    ....  ..XXXXXXXXXX",
"XXXXXXXXXX............................XXXXXXXXXX",
"XXXXXXXXXX............................XXXXXXXXXX",
"XXXXXXXXXX............................XXXXXXXXXX",
"XXXXXXXXXX............................XXXXXXXXXX",
"XXXXXXXXXX........XX........XX........XXXXXXXXXX",
"XXXXXXXXXX........XX........XX........XXXXXXXXXX",
"XXXXXXXXXXXX....XXXXXX....XXXXXX....XXXXXXXXXXXX",
"XXXXXXXXXXXX....XXXXXX....XXXXXX....XXXXXXXXXXXX",
"XXXXXXXXXXXXXXXXXXXXXXXXXXXXXXXXXXXXXXXXXXXXXXXX",
"XXXXXXXXXXXXXXXXXXXXXXXXXXXXXXXXXXXXXXXXXXXXXXXX",
"XXXXXXXXXXXXXXXXXXXXXXXXXXXXXXXXXXXXXXXXXXXXXXXX",
"XXXXXXXXXXXXXXXXXXXXXXXXXXXXXXXXXXXXXXXXXXXXXXXX",
"XXXXXXXXXXXXXXXXXXXXXXXXXXXXXXXXXXXXXXXXXXXXXXXX",
"XXXXXXXXXXXXXXXXXXXXXXXXXXXXXXXXXXXXXXXXXXXXXXXX",
"XXXXXXXXXXXXXXXXXXXXXXXXXXXXXXXXXXXXXXXXXXXXXXXX",
"XXXXXXXXXXXXXXXXXXXXXXXXXXXXXXXXXXXXXXXXXXXXXXXX",
"XXXXXXXXXXXXXXXXXXXXXXXXXXXXXXXXXXXXXXXXXXXXXXXX",
"XXXXXXXXXXXXXXXXXXXXXXXXXXXXXXXXXXXXXXXXXXXXXXXX"
};
