/* XPM */
static char *result[] = {
/* columns rows colors chars-per-pixel */
"48 48 3 1 ",
"  c red",
". c #E0DDFF",
"X c #000000",
/* pixels */
"XXXXXXXXXXXXXXXXXXXXXXXXXXXXXXXXXXXXXXXXXXXXXXXX",
"XXXXXXXXXXXXXXXXXXXXXXXXXXXXXXXXXXXXXXXXXXXXXXXX",
"XXXXXXXXXXXXXXXXXXXXXXXXXXXXXXXXXXXXXXXXXXXXXXXX",
"XXXXXXXXXXXXXXXXXXXXXXXXXXXXXXXXXXXXXXXXXXXXXXXX",
"XXXXXXXXXXXXXXXXXXXXXXXXXXXXXXXXXXXXXXXXXXXXXXXX",
"XXXXXXXXXXXXXXXXXXXXXXXXXXXXXXXXXXXXXXXXXXXXXXXX",
"XXXXXXXXXXXXXXXXXXXXXXXXXXXXXXXXXXXXXXXXXXXXXXXX",
"XXXXXXXXXXXXXXXXXXXXXXXXXXXXXXXXXXXXXXXXXXXXXXXX",
"XXXXXXXXXXXXXXXXXXXXXXXXXXXXXXXXXXXXXXXXXXXXXXXX",
"XXXXXXXXXXXXXXXXXXXXXXXXXXXXXXXXXXXXXXXXXXXXXXXX",
"XXXXXXXXXXXXXXXXXXXX........XXXXXXXXXXXXXXXXXXXX",
"XXXXXXXXXXXXXXXXXXXX........XXXXXXXXXXXXXXXXXXXX",
"XXXXXXXXXXXXXXXX................XXXXXXXXXXXXXXXX",
"XXXXXXXXXXXXXXXX................XXXXXXXXXXXXXXXX",
"XXXXXXXXXXXXXX....................XXXXXXXXXXXXXX",
"XXXXXXXXXXXXXX....................XXXXXXXXXXXXXX",
"XXXXXXXXXXXX........................XXXXXXXXXXXX",
"XXXXXXXXXXXX........................XXXXXXXXXXXX",
"XXXXXXXXXXXX......    ....    ......XXXXXXXXXXXX",
"XXXXXXXXXXXX......    ....    ......XXXXXXXXXXXX",
"XXXXXXXXXXXX......    ....    ......XXXXXXXXXXXX",
"XXXXXXXXXXXX......    ....    ......XXXXXXXXXXXX",
"XXXXXXXXXX............................XXXXXXXXXX",
"XXXXXXXXXX............................XXXXXXXXXX",
"XXXXXXXXXX............................XXXXXXXXXX",
"XXXXXXXXXX............................XXXXXXXXXX",
"XXXXXXXXXX....    ....    ....    ....XXXXXXXXXX",
"XXXXXXXXXX....    ....    ....    ....XXXXXXXXXX",
"XXXXXXXXXX..  ....    ....    ....  ..XXXXXXXXXX",
"XXXXXXXXXX..  ....    ....    ....  ..XXXXXXXXXX",
"XXXXXXXXXX............................XXXXXXXXXX",
"XXXXXXXXXX............................XXXXXXXXXX",
"XXXXXXXXXX............................XXXXXXXXXX",
"XXXXXXXXXX............................XXXXXXXXXX",
"XXXXXXXXXX....XX......XXXX......XX....XXXXXXXXXX",
"XXXXXXXXXX....XX......XXXX......XX....XXXXXXXXXX",
"XXXXXXXXXX..XXXXXX....XXXX....XXXXXX..XXXXXXXXXX",
"XXXXXXXXXX..XXXXXX....XXXX....XXXXXX..XXXXXXXXXX",
"XXXXXXXXXXXXXXXXXXXXXXXXXXXXXXXXXXXXXXXXXXXXXXXX",
"XXXXXXXXXXXXXXXXXXXXXXXXXXXXXXXXXXXXXXXXXXXXXXXX",
"XXXXXXXXXXXXXXXXXXXXXXXXXXXXXXXXXXXXXXXXXXXXXXXX",
"XXXXXXXXXXXXXXXXXXXXXXXXXXXXXXXXXXXXXXXXXXXXXXXX",
"XXXXXXXXXXXXXXXXXXXXXXXXXXXXXXXXXXXXXXXXXXXXXXXX",
"XXXXXXXXXXXXXXXXXXXXXXXXXXXXXXXXXXXXXXXXXXXXXXXX",
"XXXXXXXXXXXXXXXXXXXXXXXXXXXXXXXXXXXXXXXXXXXXXXXX",
"XXXXXXXXXXXXXXXXXXXXXXXXXXXXXXXXXXXXXXXXXXXXXXXX",
"XXXXXXXXXXXXXXXXXXXXXXXXXXXXXXXXXXXXXXXXXXXXXXXX",
"XXXXXXXXXXXXXXXXXXXXXXXXXXXXXXXXXXXXXXXXXXXXXXXX"
};
