/* XPM */
static char *result[] = {
/* columns rows colors chars-per-pixel */
"30 30 3 1 ",
"  c red",
". c #E0DDFF",
"X c None",
/* pixels */
"XXXXXXXXXXXXXXXXXXXXXXXXXXXXXX",
"XXXXXXXXXXX........XXXXXXXXXXX",
"XXXXXXXXXXX........XXXXXXXXXXX",
"XXXXXXX................XXXXXXX",
"XXXXXXX................XXXXXXX",
"XXXXX....................XXXXX",
"XXXXX....................XXXXX",
"XXX........................XXX",
"XXX........................XXX",
"XXX......    ....    ......XXX",
"XXX......    ....    ......XXX",
"XXX......    ....    ......XXX",
"XXX......    ....    ......XXX",
"X............................X",
"X............................X",
"X............................X",
"X............................X",
"X....    ....    ....    ....X",
"X....    ....    ....    ....X",
"X..  ....    ....    ....  ..X",
"X..  ....    ....    ....  ..X",
"X............................X",
"X............................X",
"X............................X",
"X............................X",
"X....XX......XXXX......XX....X",
"X....XX......XXXX......XX....X",
"X..XXXXXX....XXXX....XXXXXX..X",
"X..XXXXXX....XXXX....XXXXXX..X",
"XXXXXXXXXXXXXXXXXXXXXXXXXXXXXX"
};
