/* XPM */
static char *result[] = {
/* columns rows colors chars-per-pixel */
"48 48 198 2 ",
"   c #161A1B",
".  c #1B1F21",
"X  c #1D2325",
"o  c #1E2829",
"O  c #2C2926",
"+  c #242B2C",
"@  c #33372C",
"#  c #272F31",
"$  c #282E30",
"%  c #273032",
"&  c #283032",
"*  c #5C2000",
"=  c #662808",
"-  c #762E05",
";  c #762F08",
":  c #7A3006",
">  c #7D340D",
",  c #6C2F11",
"<  c #6D3213",
"1  c #6E381A",
"2  c #723110",
"3  c #703A1C",
"4  c #4E3222",
"5  c #6A3E23",
"6  c #7E4221",
"7  c #774F30",
"8  c #6E513F",
"9  c #75523F",
"0  c #364444",
"q  c #3A4747",
"w  c #34464A",
"e  c #33494C",
"r  c #324D51",
"t  c #3A4F54",
"y  c #2F5659",
"u  c #2D5C5C",
"i  c #315354",
"p  c #2D5F61",
"a  c #1F6263",
"s  c #216364",
"d  c #2B6264",
"f  c #2A6969",
"g  c #3A6266",
"h  c #3D7477",
"j  c #585448",
"k  c #6D5645",
"l  c #766356",
"z  c #69715E",
"x  c #445C61",
"c  c #487B77",
"v  c #587F7F",
"b  c #6F6A64",
"n  c #6C7875",
"m  c #717A7A",
"M  c #80350B",
"N  c #893A0E",
"B  c #833A13",
"V  c #8D3D11",
"C  c #8B4115",
"Z  c #84421D",
"A  c #934114",
"S  c #994517",
"D  c #944419",
"F  c #9B471A",
"G  c #9D491D",
"H  c #A44C1F",
"J  c #884827",
"K  c #924A23",
"L  c #9A4C22",
"P  c #954E2A",
"I  c #9C4F29",
"U  c #9E502A",
"Y  c #87593A",
"T  c #975737",
"R  c #A44E21",
"E  c #A84F20",
"W  c #AA5122",
"Q  c #A65728",
"!  c #B65725",
"~  c #B55927",
"^  c #BB5A26",
"/  c #B45B2A",
"(  c #BD5E2D",
")  c #A35936",
"_  c #AD613D",
"`  c #BD6133",
"'  c #B4633F",
"]  c #BC663D",
"[  c #C5622F",
"{  c #C36434",
"}  c #C86532",
"|  c #CD6935",
" . c #C4683C",
".. c #CC6D3E",
"X. c #D46931",
"o. c #D96D34",
"O. c #D46F3E",
"+. c #DB7037",
"@. c #D5703E",
"#. c #DA713E",
"$. c #EC773A",
"%. c #ED783B",
"&. c #F17B3E",
"*. c #8C5E43",
"=. c #976041",
"-. c #876A58",
";. c #A86546",
":. c #BD6740",
">. c #B76844",
",. c #A67257",
"<. c #AF7859",
"1. c #BA7352",
"2. c #B3775B",
"3. c #BB7E62",
"4. c #CB6D40",
"5. c #D16F40",
"6. c #CA754A",
"7. c #D47242",
"8. c #DC7340",
"9. c #D4764A",
"0. c #C97852",
"q. c #C37B59",
"w. c #F47E40",
"e. c #BC9664",
"r. c #B98C74",
"t. c #D48B4F",
"y. c #CB8852",
"u. c #D48E54",
"i. c #ED8143",
"p. c #F98646",
"a. c #FF8E4D",
"s. c #FF904E",
"d. c #E99D5C",
"f. c #FA9C58",
"g. c #EEA25C",
"h. c #CC9B64",
"j. c #D69E63",
"k. c #E7A263",
"l. c #ECA463",
"z. c #F8A964",
"x. c #3C7F80",
"c. c #5B7D84",
"v. c #3C8586",
"b. c #3B8B8C",
"n. c #379597",
"m. c #438D8E",
"M. c #5E8B91",
"N. c #469698",
"B. c #6B8988",
"V. c #738A8A",
"C. c #678C93",
"Z. c #6D949C",
"A. c #639899",
"S. c #60A29C",
"D. c #6E97A0",
"F. c #6B9BA3",
"G. c #44A7AA",
"H. c #5FAAAF",
"J. c #44B7B9",
"K. c #5DB6BA",
"L. c #5DB9BE",
"P. c #64A7AE",
"I. c #69A3AA",
"U. c #66ACB3",
"Y. c #68ACB3",
"T. c #63B4BA",
"R. c #5CBDC2",
"E. c #61BDC2",
"W. c #47CDCE",
"Q. c #5BC2C5",
"!. c #5CC5C9",
"~. c #5BC9CD",
"^. c #57CED2",
"/. c #5ACDD1",
"(. c #54D2D5",
"). c #5AD1D4",
"_. c #54D7D9",
"`. c #53DBDD",
"'. c #879595",
"]. c gray62",
"[. c #BDA294",
"{. c #9FA1A1",
"}. c #A8A9A9",
"|. c #A6B2B2",
" X c #AFB0B0",
".X c #B1B1B2",
"XX c #BBBCBC",
"oX c #C5A898",
"OX c #CFB5A6",
"+X c #D4BBAE",
"@X c #C5C6C6",
"#X c #DFD1C9",
"$X c #CFD0D1",
"%X c #E7DDD7",
"&X c #E2E2E3",
"*X c #F4F1EE",
"=X c #F5F5F5",
"-X c #000000",
/* pixels */
"-X-X-X-X-X-X-X-X-X-X-X-X-X-X-X-X-X-X-XXX{.c a p a @ Z Q Z P oX-X-X-X-X-X-X-X-X-X-X-X-X-X-X-X-X-X",
"-X-X-X-X-X-X-X-X-X-X-X-X-X-X-X-X=X$XV.m.n.W.!.R.S.;.p.u.Q  .P OX-X-X-X-X-X-X-X-X-X-X-X-X-X-X-X-X",
"-X-X-X-X-X-X-X-X-X-X-X-X-X-X-X@XV.v.J.H.U.K.Q.m _ i.z.@.R #.G ] OX-X-X-X-X-X-X-X-X-X-X-X-X-X-X-X",
"-X-X-X-X-X-X-X-X-X-X-X-X-X-X|.m.G.R.~.U.M.g u 5 %.f.t...R #.R ..J  X-X-X-X-X-X-X-X-X-X-X-X-X-X-X",
"-X-X-X-X-X-X-X-X-X-X-X-X-X|.N._.U.D.M.b.% + . Z w.g./ ..H +.R ..7 c |.-X-X-X-X-X-X-X-X-X-X-X-X-X",
"-X-X-X-X-X-X-X-X-X-X-X-X|.N.P.I.L.g % X + + 4 } p.g./ @.H +.R @.B z N.|.-X-X-X-X-X-X-X-X-X-X-X-X",
"-X-X-X-X-X-X-X-X-X-X-X@Xb.R.Z.C.u o + & $ $ 4 +.f.y.Q +.E @.R #.C k K.b.@X-X-X-X-X-X-X-X-X-X-X-X",
"-X-X-X-X-X-X-X-X-X-X*XV.G.~.H.t o $ & $ $ O R p.f.y.R @.H ..L #.R / S.G.V.=X-X-X-X-X-X-X-X-X-X-X",
"-X-X-X-X-X-X-X-X-X-X@Xx.K.F.g X # # # # # O L p.f.y.E @.H ..L #.W W n T.v.@X-X-X-X-X-X-X-X-X-X-X",
"-X-X-X-X-X-X-X-X-X-XB.J.F.M.% + # # # # # 4 { p.f.6.W @.R @.H #.R { l Z.J.V.-X-X-X-X-X-X-X-X-X-X",
"-X-X-X-X-X-X-X-X-XXXb.R./.h . # # # # # # 1 w.s.k.] W ..R #.H #.R @.7 !.E.m..X-X-X-X-X-X-X-X-X-X",
"-X-X-X-X-X-X-X-X-X].n.U.C.+ # # # # # # # 1 w.s.k.:.R ..R #.H 8.R #.6 c Y.n.].-X-X-X-X-X-X-X-X-X",
"-X-X-X-X-X-X-X-X-X'.n.I.c.+ $ # # # # # # 1 w.w.y.) R ..H @.G 8.R #.2 0 I.n.'.-X-X-X-X-X-X-X-X-X",
"-X-X-X-X-X-X-X-X-Xf (.Q.p X $ # # # # # # 1 X.( / W S R F  .G ..R @.2 i Q.(.f -X-X-X-X-X-X-X-X-X",
"-X-X-X-X-X-X-X-X-Xp ^.K.i X # # # & # # # 3 ^ } 9.0.| [ G G A ` G @., i T.^.s -X-X-X-X-X-X-X-X-X",
"-X-X-X-X-X-X-X-X-Xa R.Z.w X # # # # # # # 1 X.! R ,.1.2.9.@.~ W A Q = q Z.L.a -X-X-X-X-X-X-X-X-X",
"-X-X-X-X-X-X-X-X-Xa Q.P.i X % # % % $ % $ 1 &.o.V M B T ;.2.0.6.4.[ V j U./.s -X-X-X-X-X-X-X-X-X",
"-X-X-X-X-X-X-X-X-Xa `./.p X % # $ $ % $ $ 1 &.a.j.U N V : J I ;.1.1.:.b R.`.a -X-X-X-X-X-X-X-X-X",
"-X-X-X-X-X-X-X-X-Xa R.Z.e X % $ % # % $ $ 1 &.a.l.:.W { V F - B B T T k A.R.s -X-X-X-X-X-X-X-X-X",
"-X-X-X-X-X-X-X-X-Xs R.D.e X % % $ # # $ $ 1 &.a.l.:.E 4.E ..G ~ > V = j F.R.s -X-X-X-X-X-X-X-X-X",
"-X-X-X-X-X-X-X-X-Xp `.^.p X % % $ # # # # 1 w.a.l.>.R ..R 4.R 4.R  .= u /.`.s -X-X-X-X-X-X-X-X-X",
"-X-X-X-X-X-X-X-X-Xa !.I.r X % $ % $ % # # 1 %.a.j.l Y 4.R O.H O.L 7., e I.~.s -X-X-X-X-X-X-X-X-X",
"-X-X-X-X-X-X-X-X-Xa L.Z.w X % % $ % $ # # 1 w.s.e.m -...R #.H O.R #.2 0 Z.E.s -X-X-X-X-X-X-X-X-X",
"-X-X-X-X-X-X-X-X-Xa ^.R.y X % # % $ $ % + 1 w.s.h.b *...R #.H 5.R 8.2 r E.).s -X-X-X-X-X-X-X-X-X",
"-X-X-X-X-X-X-X-X-Xa (.R.u X # # # # # # # 1 w.a.k.8 K O.E #.H 8.R $., i E.).s -X-X-X-X-X-X-X-X-X",
"-X-X-X-X-X-X-X-X-Xs R.Z.w X # # # # # # # 1 %.a.l.9 K #.E ..L #.E 8., 0 Z.R.s -X-X-X-X-X-X-X-X-X",
"-X-X-X-X-X-X-X-X-Xp Q.I.r o % # # # # $ # 1 %.a.l.9 K #.E ..R @.E 7., w I.Q.s -X-X-X-X-X-X-X-X-X",
"-X-X-X-X-X-X-X-X-Xa `.(.p X % # # # # # # 1 w.a.k.8 K #.E @.H 4.R 8.2 u /.`.s -X-X-X-X-X-X-X-X-X",
"-X-X-X-X-X-X-X-X-Xs R.D.w X & $ # # # # # 1 %.a.h.b Y 8.E #.H ..L #.2 q D.Q.s -X-X-X-X-X-X-X-X-X",
"-X-X-X-X-X-X-X-X-Xa R.D.w X & # # # # # # 1 w.s.e.m -.4.R @.H #.E #.2 q Z.R.s -X-X-X-X-X-X-X-X-X",
"-X-X-X-X-X-X-X-X-Xs _./.p X % # # # # $ $ 1 w.a.j.l Y ..R 7.H #.E 8.< y ~.`.s -X-X-X-X-X-X-X-X-X",
"-X-X-X-X-X-X-X-X-Xa ~.U.r o % # # # $ $ $ 1 &.a.k.;.E ..R ..R ..H 7., r Y./.s -X-X-X-X-X-X-X-X-X",
"-X-X-X-X-X-X-X-X-Xa L.Z.w X % & # # # # # 1 w.a.k. .W 8.W 4.R 5.G { ; j C.R.s -X-X-X-X-X-X-X-X-X",
"-X-X-X-X-X-X-X-X-Xa ~.U.i X # # & # # # $ 1 w.a.l.:.W 5.R  .V ( V ( [ J c.^.a -X-X-X-X-X-X-X-X-X",
"-X-X-X-X-X-X-X-X-Xp (.!.p X & & # # # # $ 1 &.a.l.:.R ( V ^ ! } 9.q.1.I C.`.f -X-X-X-X-X-X-X-X-X",
"-X-X-X-X-X-X-X-X-Xa R.Z.w o # # # # # # # 1 &.i.y.U V ( } 6.0.3.;._ Z k C.R.s -X-X-X-X-X-X-X-X-X",
"-X-X-X-X-X-X-X-X-Xa R.F.w X & # # # $ % $ 1 o.^ ~  .7.q.0.2.T P M : * w F.E.s -X-X-X-X-X-X-X-X-X",
"-X-X-X-X-X-X-X-X-Xa `.(.d X # # # % % $ $ 3 ^ } 9.3.;.;.Z M : M N ` = p ).`.s -X-X-X-X-X-X-X-X-X",
"-X-X-X-X-X-X-X-X-Xa !.F.r o & & # $ # $ $ 1 X.~ R P > - M F V 4.R 8.2 w F.Q.s -X-X-X-X-X-X-X-X-X",
"-X-X-X-X-X-X-X-X-Xa R.F.w X & # # % % % $ 1 w.+.C M V / R 8.W 8.R 7.2 q D.E.s -X-X-X-X-X-X-X-X-X",
"-X-X-X-X-X-X-X-X-Xc.h x #   . . X X . X . < %.s.d.' H #.E O.E 7.E 7.2 + x h v -X-X-X-X-X-X-X-X-X",
"-X-X-X-X-X-X-X-X-X&X X X.X.X X X.X X X X}.=.%.s.k.4.W #.H ..L 5.D ] [..X.X.X&X-X-X-X-X-X-X-X-X-X",
"-X-X-X-X-X-X-X-X-X-X-X-X-X-X-X-X-X-X-X-X-X<.%.s.k.] W O.E ..G { ,.OX-X-X-X-X-X-X-X-X-X-X-X-X-X-X",
"-X-X-X-X-X-X-X-X-X-X-X-X-X-X-X-X-X-X-X-X-X<.%.s.k.:.W ..E ..P h.=X-X-X-X-X-X-X-X-X-X-X-X-X-X-X-X",
"-X-X-X-X-X-X-X-X-X-X-X-X-X-X-X-X-X-X-X-X-X<.%.s.k.;.H ..A 1.#X=X-X-X-X-X-X-X-X-X-X-X-X-X-X-X-X-X",
"-X-X-X-X-X-X-X-X-X-X-X-X-X-X-X-X-X-X-X-X=X<.%.s.k.>.H  .oX%X-X-X-X-X-X-X-X-X-X-X-X-X-X-X-X-X-X-X",
"-X-X-X-X-X-X-X-X-X-X-X-X-X-X-X-X-X-X-X-X-X2.%.s.k.) ,.+X-X-X-X-X-X-X-X-X-X-X-X-X-X-X-X-X-X-X-X-X",
"-X-X-X-X-X-X-X-X-X-X-X-X-X-X-X-X-X-X-X-X-XOXQ Q Q r.*X-X-X-X-X-X-X-X-X-X-X-X-X-X-X-X-X-X-X-X-X-X"
};
