/* XPM */
static char *result[] = {
/* columns rows colors chars-per-pixel */
"48 48 2 1 ",
"  c yellow",
". c #000000",
/* pixels */
"................................................",
"................................................",
"................................................",
"................................................",
"................................................",
"................................................",
"................................................",
"................................................",
"................................................",
"................................................",
"................................................",
"...................          ...................",
"...................          ...................",
"...............                  ...............",
"...............                  ...............",
".............                      .............",
".............                      .............",
".............                      .............",
".............                      .............",
"...........                    .................",
"...........                    .................",
"...........              .......................",
"...........              .......................",
"...........        .............................",
"...........        .............................",
"...........              .......................",
"...........              .......................",
"...........                    .................",
"...........                    .................",
".............                      .............",
".............                      .............",
".............                      .............",
".............                      .............",
"...............                  ...............",
"...............                  ...............",
"...................          ...................",
"...................          ...................",
"................................................",
"................................................",
"................................................",
"................................................",
"................................................",
"................................................",
"................................................",
"................................................",
"................................................",
"................................................",
"................................................"
};
